<svg width="143" height="143" viewBox="0 0 143 143" fill="none" xmlns="http://www.w3.org/2000/svg">
<path fill-rule="evenodd" clip-rule="evenodd" d="M25 0C11.1929 0 0 11.1929 0 25V118C0 131.807 11.1929 143 25 143H118C131.807 143 143 131.807 143 118V25C143 11.1929 131.807 0 118 0H25ZM71.5 114C94.9721 114 114 94.9721 114 71.5C114 48.0279 94.9721 29 71.5 29C48.0279 29 29 48.0279 29 71.5C29 94.9721 48.0279 114 71.5 114Z" fill="url(#paint0_linear_235_90)"/>
<defs>
<linearGradient id="paint0_linear_235_90" x1="0" y1="0" x2="143" y2="143" gradientUnits="userSpaceOnUse">
<stop stop-color="#2AE5BC"/>
<stop offset="0.5" stop-color="#5BD8BD"/>
<stop offset="1" stop-color="#99E0D1"/>
</linearGradient>
</defs>
</svg>
